<svg xmlns="http://www.w3.org/2000/svg" viewBox="0 0 395.52 69.58942013786205" height="69.58942013786205" width="395.52"><g><svg viewBox="0 0 512.8827341258875 90.23870364720314" height="69.58942013786205" width="395.52"><g><rect width="5.074017997469977" height="90.23870364720314" x="99.00594650153285" y="0" fill="#000000" opacity="1" stroke-width="0" stroke="transparent" fill-opacity="1" class="rect-yte-0" data-fill-palette-color="primary" rx="1%" id="yte-0" data-palette-color="#111111"/></g><g transform="matrix(1,0,0,1,117.36273412588758,0.22447438718209156)"><svg viewBox="0 0 395.52 89.78975487283896" height="89.78975487283896" width="395.52"><g id="textblocktransform"><svg viewBox="0 0 395.52 89.78975487283896" height="89.78975487283896" width="395.52" id="textblock"><g><svg viewBox="0 0 395.52 56.26480297397769" height="56.26480297397769" width="395.52"><g transform="matrix(1,0,0,1,0,0)"><svg width="395.52" viewBox="2.88 -32.03 295.51 42.04" height="56.26480297397769" data-palette-color="#111111"><path d="M24.39-29.52Q25.39-29.52 25.81-29.15 26.22-28.78 26.22-27.93L26.22-27.93 26.22-19.87Q26.22-19.02 25.81-18.65 25.39-18.29 24.39-18.29L24.39-18.29Q23.39-18.29 22.97-18.65 22.56-19.02 22.56-19.87L22.56-19.87Q22.56-21.53 21.81-22.9 21.07-24.27 19.53-25.09 17.99-25.9 15.72-25.9L15.72-25.9Q13.09-25.9 11.05-24.51 9.01-23.12 7.87-20.53 6.74-17.94 6.74-14.48L6.74-14.48Q6.74-11.01 7.81-8.44 8.89-5.86 10.86-4.47 12.84-3.08 15.48-3.08L15.48-3.08Q17.9-3.08 20.09-3.78 22.29-4.49 24.05-5.83L24.05-5.83Q24.46-6.18 24.95-6.18L24.95-6.18Q25.68-6.18 26.25-5.22L26.25-5.22Q26.68-4.49 26.68-3.93L26.68-3.93Q26.68-3.2 25.93-2.66L25.93-2.66Q23.66-1.07 20.98-0.27 18.31 0.54 15.48 0.54L15.48 0.54Q11.67 0.54 8.83-1.33 5.98-3.2 4.43-6.59 2.88-9.99 2.88-14.48L2.88-14.48Q2.88-18.95 4.47-22.35 6.05-25.76 8.92-27.64 11.79-29.52 15.48-29.52L15.48-29.52Q17.77-29.52 19.56-28.74 21.34-27.95 22.56-26.51L22.56-26.51 22.56-27.93Q22.56-28.78 22.97-29.15 23.39-29.52 24.39-29.52L24.39-29.52ZM44.97-23.1Q48.31-23.1 51-21.58 53.68-20.07 55.21-17.37 56.74-14.67 56.74-11.28L56.74-11.28Q56.74-7.89 55.21-5.19 53.68-2.49 51-0.98 48.31 0.54 44.97 0.54L44.97 0.54Q41.62 0.54 38.94-0.98 36.25-2.49 34.73-5.19 33.2-7.89 33.2-11.28L33.2-11.28Q33.2-14.67 34.73-17.37 36.25-20.07 38.94-21.58 41.62-23.1 44.97-23.1L44.97-23.1ZM44.97-19.48Q42.6-19.48 40.81-18.44 39.01-17.41 38.03-15.54 37.06-13.67 37.06-11.28L37.06-11.28Q37.06-8.89 38.03-7.02 39.01-5.15 40.81-4.11 42.6-3.08 44.97-3.08L44.97-3.08Q47.34-3.08 49.13-4.11 50.93-5.15 51.9-7.02 52.88-8.89 52.88-11.28L52.88-11.28Q52.88-13.67 51.9-15.54 50.93-17.41 49.13-18.44 47.34-19.48 44.97-19.48L44.97-19.48ZM77.7-23.1Q79.93-23.1 81.56-22.13 83.2-21.17 84.08-19.36 84.96-17.55 84.96-15.14L84.96-15.14 84.96-3.32 86.96-3.32Q87.79-3.32 88.14-2.94 88.5-2.56 88.5-1.66L88.5-1.66Q88.5-0.76 88.14-0.38 87.79 0 86.96 0L86.96 0 79.05 0Q78.22 0 77.86-0.38 77.51-0.76 77.51-1.66L77.51-1.66Q77.51-2.56 77.86-2.94 78.22-3.32 79.05-3.32L79.05-3.32 81.29-3.32 81.29-14.77Q81.29-16.94 80.29-18.21 79.29-19.48 77.34-19.48L77.34-19.48Q75.26-19.48 73.47-18.29 71.67-17.09 70.6-14.99 69.53-12.89 69.53-10.3L69.53-10.3 69.53-3.32 71.77-3.32Q72.6-3.32 72.96-2.94 73.31-2.56 73.31-1.66L73.31-1.66Q73.31-0.76 72.96-0.38 72.6 0 71.77 0L71.77 0 63.86 0Q63.03 0 62.68-0.38 62.32-0.76 62.32-1.66L62.32-1.66Q62.32-2.56 62.68-2.94 63.03-3.32 63.86-3.32L63.86-3.32 65.86-3.32 65.86-19.24 63.37-19.24Q62.54-19.24 62.19-19.62 61.84-20 61.84-20.9L61.84-20.9Q61.84-21.8 62.19-22.18 62.54-22.56 63.37-22.56L63.37-22.56 67.74-22.56Q68.57-22.56 68.93-22.18 69.28-21.8 69.28-20.9L69.28-20.9 69.28-17.97Q70.89-20.46 73.05-21.78 75.21-23.1 77.7-23.1L77.7-23.1ZM101.12-29.52Q102.12-29.52 102.53-29.15 102.95-28.78 102.95-27.93L102.95-27.93 102.95-20.61 112.98-20.61Q113.81-20.61 114.16-20.23 114.52-19.85 114.52-18.95L114.52-18.95Q114.52-18.04 114.16-17.66 113.81-17.29 112.98-17.29L112.98-17.29 102.95-17.29 102.95-8.4Q102.95-5.62 103.91-4.32 104.88-3.03 107.27-3.03L107.27-3.03Q108.9-3.03 110.71-3.69 112.52-4.35 114.2-5.44L114.2-5.44Q114.54-5.69 114.96-5.69L114.96-5.69Q115.79-5.69 116.37-4.57L116.37-4.57Q116.69-3.93 116.69-3.47L116.69-3.47Q116.69-2.69 115.89-2.2L115.89-2.2Q113.98-1 111.64-0.23 109.29 0.54 107.27 0.54L107.27 0.54Q103.12 0.54 101.2-1.62 99.28-3.78 99.28-8.08L99.28-8.08 99.28-17.29 94.33-17.29Q93.5-17.29 93.14-17.66 92.79-18.04 92.79-18.95L92.79-18.95Q92.79-19.85 93.14-20.23 93.5-20.61 94.33-20.61L94.33-20.61 99.28-20.61 99.28-27.93Q99.28-28.78 99.7-29.15 100.11-29.52 101.12-29.52L101.12-29.52ZM135.12-23.1Q138.66-23.1 141.16-21.67 143.67-20.24 145.01-17.71 146.35-15.19 146.55-11.89L146.55-11.89Q146.55-11.06 146.19-10.72 145.84-10.38 145.01-10.38L145.01-10.38 127.33-10.38Q127.5-6.74 129.49-4.87 131.48-3 135.12-3L135.12-3Q137.37-3 139.57-3.58 141.76-4.15 143.42-5.1L143.42-5.1Q143.84-5.32 144.18-5.32L144.18-5.32Q145.03-5.32 145.57-4.03L145.57-4.03Q145.79-3.52 145.79-3.1L145.79-3.1Q145.79-2.12 144.72-1.59L144.72-1.59Q142.84-0.63 140.27-0.05 137.71 0.54 135.12 0.54L135.12 0.54Q131.44 0.54 128.82-0.88 126.21-2.29 124.84-4.96 123.48-7.62 123.48-11.28L123.48-11.28Q123.48-14.77 124.97-17.46 126.45-20.14 129.09-21.62 131.73-23.1 135.12-23.1L135.12-23.1ZM135.12-19.56Q132.12-19.56 130.15-18.03 128.19-16.5 127.58-13.79L127.58-13.79 142.49-13.79Q141.98-16.6 140.14-18.08 138.3-19.56 135.12-19.56L135.12-19.56ZM178.97-3.32Q179.8-3.32 180.15-2.94 180.51-2.56 180.51-1.66L180.51-1.66Q180.51-0.76 180.15-0.38 179.8 0 178.97 0L178.97 0 175.33 0Q174.5 0 174.15-0.38 173.79-0.76 173.79-1.66L173.79-1.66 173.79-16.11Q173.79-17.8 173.24-18.64 172.69-19.48 171.47-19.48L171.47-19.48Q170.32-19.48 169.35-18.42 168.37-17.36 167.8-15.47 167.22-13.57 167.22-11.16L167.22-11.16 167.22-3.32 168.62-3.32Q169.45-3.32 169.8-2.94 170.15-2.56 170.15-1.66L170.15-1.66Q170.15-0.76 169.8-0.38 169.45 0 168.62 0L168.62 0 165.1 0Q164.27 0 163.92-0.38 163.56-0.76 163.56-1.66L163.56-1.66 163.56-16.11Q163.56-17.8 163.01-18.64 162.46-19.48 161.24-19.48L161.24-19.48Q160.09-19.48 159.12-18.42 158.14-17.36 157.57-15.47 156.99-13.57 156.99-11.16L156.99-11.16 156.99-3.32 158.26-3.32Q159.09-3.32 159.45-2.94 159.8-2.56 159.8-1.66L159.8-1.66Q159.8-0.76 159.45-0.38 159.09 0 158.26 0L158.26 0 151.33 0Q150.5 0 150.15-0.38 149.79-0.76 149.79-1.66L149.79-1.66Q149.79-2.56 150.15-2.94 150.5-3.32 151.33-3.32L151.33-3.32 153.33-3.32 153.33-19.24 151.33-19.24Q150.5-19.24 150.15-19.62 149.79-20 149.79-20.9L149.79-20.9Q149.79-21.8 150.15-22.18 150.5-22.56 151.33-22.56L151.33-22.56 154.97-22.56Q155.8-22.56 156.15-22.18 156.51-21.8 156.51-20.9L156.51-20.9 156.51-18.48Q157.56-20.78 159.02-21.94 160.49-23.1 162.19-23.1L162.19-23.1Q163.85-23.1 165.1-21.97 166.34-20.85 166.78-18.68L166.78-18.68Q168.96-23.1 172.4-23.1L172.4-23.1Q173.84-23.1 174.98-22.38 176.11-21.66 176.78-20.18 177.45-18.7 177.45-16.55L177.45-16.55 177.45-3.32 178.97-3.32ZM196.2-23.1Q199.23-23.1 201.62-21.67 204.01-20.24 205.38-17.57 206.75-14.89 206.75-11.28L206.75-11.28Q206.75-7.67 205.38-4.99 204.01-2.32 201.62-0.89 199.23 0.54 196.2 0.54L196.2 0.54Q191.61 0.54 188.46-3.49L188.46-3.49 188.46 6.15 192.66 6.15Q193.49 6.15 193.84 6.53 194.2 6.91 194.2 7.81L194.2 7.81Q194.2 8.72 193.84 9.09 193.49 9.47 192.66 9.47L192.66 9.47 182.31 9.47Q181.48 9.47 181.13 9.09 180.77 8.72 180.77 7.81L180.77 7.81Q180.77 6.91 181.13 6.53 181.48 6.15 182.31 6.15L182.31 6.15 184.8 6.15 184.8-19.24 182.8-19.24Q181.97-19.24 181.61-19.62 181.26-20 181.26-20.9L181.26-20.9Q181.26-21.8 181.61-22.18 181.97-22.56 182.8-22.56L182.8-22.56 186.68-22.56Q187.51-22.56 187.86-22.18 188.22-21.8 188.22-20.9L188.22-20.9 188.22-18.95Q189.76-20.95 191.78-22.02 193.81-23.1 196.2-23.1L196.2-23.1ZM195.96-19.48Q193.78-19.48 192.09-18.51 190.39-17.53 189.43-15.67 188.46-13.82 188.46-11.28L188.46-11.28Q188.46-8.74 189.43-6.88 190.39-5.03 192.09-4.05 193.78-3.08 195.96-3.08L195.96-3.08Q198.13-3.08 199.69-4.11 201.25-5.15 202.07-7.01 202.89-8.86 202.89-11.28L202.89-11.28Q202.89-13.7 202.07-15.55 201.25-17.41 199.69-18.44 198.13-19.48 195.96-19.48L195.96-19.48ZM225.47-32.03Q226.3-32.03 226.65-31.65 227.01-31.27 227.01-30.37L227.01-30.37 227.01-3.32 234.85-3.32Q235.68-3.32 236.03-2.94 236.38-2.56 236.38-1.66L236.38-1.66Q236.38-0.76 236.03-0.38 235.68 0 234.85 0L234.85 0 215.71 0Q214.88 0 214.52-0.38 214.17-0.76 214.17-1.66L214.17-1.66Q214.17-2.56 214.52-2.94 214.88-3.32 215.71-3.32L215.71-3.32 223.35-3.32 223.35-28.71 216.68-28.71Q215.85-28.71 215.5-29.09 215.14-29.47 215.14-30.37L215.14-30.37Q215.14-31.27 215.5-31.65 215.85-32.03 216.68-32.03L216.68-32.03 225.47-32.03ZM254.81-23.1Q258.16-23.1 260.84-21.58 263.53-20.07 265.06-17.37 266.58-14.67 266.58-11.28L266.58-11.28Q266.58-7.89 265.06-5.19 263.53-2.49 260.84-0.98 258.16 0.54 254.81 0.54L254.81 0.54Q251.47 0.54 248.78-0.98 246.1-2.49 244.57-5.19 243.05-7.89 243.05-11.28L243.05-11.28Q243.05-14.67 244.57-17.37 246.1-20.07 248.78-21.58 251.47-23.1 254.81-23.1L254.81-23.1ZM254.81-19.48Q252.45-19.48 250.65-18.44 248.86-17.41 247.88-15.54 246.9-13.67 246.9-11.28L246.9-11.28Q246.9-8.89 247.88-7.02 248.86-5.15 250.65-4.11 252.45-3.08 254.81-3.08L254.81-3.08Q257.18-3.08 258.98-4.11 260.77-5.15 261.75-7.02 262.72-8.89 262.72-11.28L262.72-11.28Q262.72-13.67 261.75-15.54 260.77-17.41 258.98-18.44 257.18-19.48 254.81-19.48L254.81-19.48ZM283.45-23.1Q285.84-23.1 287.87-22.02 289.89-20.95 291.43-18.95L291.43-18.95 291.43-20.9Q291.43-21.8 291.79-22.18 292.14-22.56 292.97-22.56L292.97-22.56 296.85-22.56Q297.68-22.56 298.04-22.18 298.39-21.8 298.39-20.9L298.39-20.9Q298.39-20 298.04-19.62 297.68-19.24 296.85-19.24L296.85-19.24 294.85-19.24 294.85 0.73Q294.85 3.64 293.62 5.73 292.38 7.81 290.04 8.91 287.7 10.01 284.4 10.01L284.4 10.01Q282.06 10.01 279.67 9.61 277.27 9.2 275.2 8.45L275.2 8.45Q274.25 8.11 274.25 7.15L274.25 7.15Q274.25 6.76 274.44 6.18L274.44 6.18Q274.88 4.83 275.83 4.83L275.83 4.83Q276.1 4.83 276.37 4.93L276.37 4.93Q278.27 5.62 280.37 6.01 282.47 6.4 284.4 6.4L284.4 6.4Q287.77 6.4 289.48 4.8 291.19 3.2 291.19 0.42L291.19 0.42 291.19-4.49Q288.16-0.68 283.45-0.68L283.45-0.68Q280.42-0.68 278.03-2.04 275.64-3.39 274.27-5.93 272.9-8.47 272.9-11.89L272.9-11.89Q272.9-15.31 274.27-17.85 275.64-20.39 278.03-21.74 280.42-23.1 283.45-23.1L283.45-23.1ZM283.69-19.48Q281.52-19.48 279.96-18.52 278.4-17.55 277.58-15.83 276.76-14.11 276.76-11.89L276.76-11.89Q276.76-9.67 277.58-7.95 278.4-6.23 279.96-5.26 281.52-4.3 283.69-4.3L283.69-4.3Q285.87-4.3 287.56-5.2 289.26-6.1 290.22-7.82 291.19-9.55 291.19-11.89L291.19-11.89Q291.19-14.23 290.22-15.95 289.26-17.68 287.56-18.58 285.87-19.48 283.69-19.48L283.69-19.48Z" opacity="1" transform="matrix(1,0,0,1,0,0)" fill="#000000" class="wordmark-text-0" data-fill-palette-color="primary" id="text-0"/></svg></g></svg></g><g transform="matrix(1,0,0,1,0,69.54757260086245)"><svg viewBox="0 0 232.209792 20.24218227197651" height="20.24218227197651" width="232.209792"><g transform="matrix(1,0,0,1,0,0)"><svg width="232.209792" viewBox="1.4 -35.95 544.84 47.5" height="20.24218227197651" data-palette-color="#111111"><path d="M11.4 0L8.9 0 1.4-32.95 3.8-32.95 7.95-13.55Q8.5-10.85 9.08-8.18 9.65-5.5 10.2-2.8L10.2-2.8 10.4-2.8Q11-5.5 11.63-8.18 12.25-10.85 12.95-13.55L12.95-13.55 18.1-32.95 20.45-32.95 25.6-13.55Q26.3-10.85 26.93-8.18 27.55-5.5 28.25-2.8L28.25-2.8 28.45-2.8Q29-5.5 29.53-8.18 30.05-10.85 30.6-13.55L30.6-13.55 34.75-32.95 37-32.95 29.65 0 27.1 0 21.1-22.6Q20.65-24.55 20.2-26.33 19.75-28.1 19.35-30.05L19.35-30.05 19.15-30.05Q18.75-28.1 18.25-26.33 17.75-24.55 17.3-22.6L17.3-22.6 11.4 0ZM45.3 0L43.1 0 43.1-35.95 45.3-35.95 45.3-20.25Q47.2-22.15 49.15-23.38 51.1-24.6 53.6-24.6L53.6-24.6Q57.35-24.6 59.1-22.35 60.85-20.1 60.85-15.4L60.85-15.4 60.85 0 58.65 0 58.65-15.1Q58.65-18.95 57.37-20.78 56.1-22.6 53.15-22.6L53.15-22.6Q51-22.6 49.25-21.48 47.5-20.35 45.3-18.1L45.3-18.1 45.3 0ZM78.6 0.6L78.6 0.6Q76.3 0.6 74.27-0.25 72.25-1.1 70.75-2.73 69.25-4.35 68.37-6.68 67.5-9 67.5-11.95L67.5-11.95Q67.5-14.9 68.37-17.25 69.25-19.6 70.72-21.23 72.2-22.85 74.07-23.73 75.95-24.6 77.95-24.6L77.95-24.6Q82.25-24.6 84.7-21.7 87.15-18.8 87.15-13.5L87.15-13.5Q87.15-13.05 87.15-12.6 87.15-12.15 87.05-11.7L87.05-11.7 69.75-11.7Q69.8-9.45 70.45-7.53 71.1-5.6 72.27-4.23 73.45-2.85 75.1-2.08 76.75-1.3 78.8-1.3L78.8-1.3Q80.75-1.3 82.32-1.88 83.9-2.45 85.25-3.45L85.25-3.45 86.15-1.75Q84.7-0.9 82.97-0.15 81.25 0.6 78.6 0.6ZM69.75-13.5L69.75-13.5 85.05-13.5Q85.05-18.15 83.15-20.43 81.25-22.7 78-22.7L78-22.7Q76.45-22.7 75.05-22.08 73.65-21.45 72.52-20.25 71.4-19.05 70.67-17.35 69.95-15.65 69.75-13.5ZM95.84 0L93.64 0 93.64-24 95.54-24 95.74-19.55 95.89-19.55Q97.09-21.8 98.82-23.2 100.54-24.6 102.69-24.6L102.69-24.6Q103.39-24.6 103.94-24.5 104.49-24.4 105.09-24.1L105.09-24.1 104.59-22.1Q103.99-22.35 103.54-22.43 103.09-22.5 102.39-22.5L102.39-22.5Q100.79-22.5 99.02-21.13 97.24-19.75 95.84-16.35L95.84-16.35 95.84 0ZM118.09 0.6L118.09 0.6Q115.79 0.6 113.77-0.25 111.74-1.1 110.24-2.73 108.74-4.35 107.87-6.68 106.99-9 106.99-11.95L106.99-11.95Q106.99-14.9 107.87-17.25 108.74-19.6 110.22-21.23 111.69-22.85 113.57-23.73 115.44-24.6 117.44-24.6L117.44-24.6Q121.74-24.6 124.19-21.7 126.64-18.8 126.64-13.5L126.64-13.5Q126.64-13.05 126.64-12.6 126.64-12.15 126.54-11.7L126.54-11.7 109.24-11.7Q109.29-9.45 109.94-7.53 110.59-5.6 111.77-4.23 112.94-2.85 114.59-2.08 116.24-1.3 118.29-1.3L118.29-1.3Q120.24-1.3 121.82-1.88 123.39-2.45 124.74-3.45L124.74-3.45 125.64-1.75Q124.19-0.9 122.47-0.15 120.74 0.6 118.09 0.6ZM109.24-13.5L109.24-13.5 124.54-13.5Q124.54-18.15 122.64-20.43 120.74-22.7 117.49-22.7L117.49-22.7Q115.94-22.7 114.54-22.08 113.14-21.45 112.02-20.25 110.89-19.05 110.17-17.35 109.44-15.65 109.24-13.5ZM149.69 0.6L149.69 0.6Q147.94 0.6 146.79 0.08 145.64-0.45 144.94-1.4 144.24-2.35 143.96-3.7 143.69-5.05 143.69-6.65L143.69-6.65 143.69-22.1 139.94-22.1 139.94-23.8 143.74-24 144.04-30.95 145.94-30.95 145.94-24 152.89-24 152.89-22.1 145.94-22.1 145.94-6.45Q145.94-5.3 146.11-4.38 146.29-3.45 146.74-2.78 147.19-2.1 147.96-1.73 148.74-1.35 149.99-1.35L149.99-1.35Q150.69-1.35 151.51-1.58 152.34-1.8 152.99-2.1L152.99-2.1 153.59-0.3Q152.54 0.1 151.49 0.35 150.44 0.6 149.69 0.6ZM160.93 0L158.73 0 158.73-35.95 160.93-35.95 160.93-20.25Q162.83-22.15 164.78-23.38 166.73-24.6 169.23-24.6L169.23-24.6Q172.98-24.6 174.73-22.35 176.48-20.1 176.48-15.4L176.48-15.4 176.48 0 174.28 0 174.28-15.1Q174.28-18.95 173.01-20.78 171.73-22.6 168.78-22.6L168.78-22.6Q166.63-22.6 164.88-21.48 163.13-20.35 160.93-18.1L160.93-18.1 160.93 0ZM193.88 0.6L193.88 0.6Q191.73 0.6 189.78-0.25 187.83-1.1 186.36-2.7 184.88-4.3 184.01-6.63 183.13-8.95 183.13-11.95L183.13-11.95Q183.13-14.95 184.01-17.32 184.88-19.7 186.36-21.3 187.83-22.9 189.78-23.75 191.73-24.6 193.88-24.6L193.88-24.6Q196.03-24.6 198.01-23.75 199.98-22.9 201.46-21.3 202.93-19.7 203.81-17.32 204.68-14.95 204.68-11.95L204.68-11.95Q204.68-8.95 203.81-6.63 202.93-4.3 201.46-2.7 199.98-1.1 198.01-0.25 196.03 0.6 193.88 0.6ZM193.88-1.35L193.88-1.35Q195.68-1.35 197.26-2.13 198.83-2.9 199.96-4.3 201.08-5.7 201.73-7.65 202.38-9.6 202.38-11.95L202.38-11.95Q202.38-14.35 201.73-16.3 201.08-18.25 199.96-19.68 198.83-21.1 197.26-21.88 195.68-22.65 193.88-22.65L193.88-22.65Q192.08-22.65 190.53-21.88 188.98-21.1 187.86-19.68 186.73-18.25 186.08-16.3 185.43-14.35 185.43-11.95L185.43-11.95Q185.43-9.6 186.08-7.65 186.73-5.7 187.86-4.3 188.98-2.9 190.53-2.13 192.08-1.35 193.88-1.35ZM218.78 0.6L218.78 0.6Q215.03 0.6 213.28-1.65 211.53-3.9 211.53-8.6L211.53-8.6 211.53-24 213.73-24 213.73-8.9Q213.73-5.05 215-3.23 216.28-1.4 219.18-1.4L219.18-1.4Q221.33-1.4 223.08-2.58 224.83-3.75 226.93-6.3L226.93-6.3 226.93-24 229.13-24 229.13 0 227.28 0 227.03-4 226.93-4Q225.18-1.9 223.23-0.65 221.28 0.6 218.78 0.6ZM246.18 11.55L246.18 11.55Q241.63 11.55 238.98 9.75 236.33 7.95 236.33 4.9L236.33 4.9Q236.33 3.3 237.28 1.8 238.23 0.3 239.88-0.9L239.88-0.9 239.88-1.1Q238.98-1.65 238.38-2.6 237.78-3.55 237.78-4.95L237.78-4.95Q237.78-6.55 238.68-7.68 239.58-8.8 240.38-9.35L240.38-9.35 240.38-9.55Q239.23-10.55 238.3-12.25 237.38-13.95 237.38-16.15L237.38-16.15Q237.38-18 238.03-19.55 238.68-21.1 239.83-22.23 240.98-23.35 242.53-23.98 244.08-24.6 245.83-24.6L245.83-24.6Q246.83-24.6 247.63-24.43 248.43-24.25 248.98-24L248.98-24 257.13-24 257.13-22.15 251.53-22.15Q252.68-21.15 253.43-19.58 254.18-18 254.18-16.1L254.18-16.1Q254.18-14.25 253.53-12.7 252.88-11.15 251.75-10.03 250.63-8.9 249.1-8.28 247.58-7.65 245.83-7.65L245.83-7.65Q244.83-7.65 243.75-7.9 242.68-8.15 241.83-8.65L241.83-8.65Q241.03-8 240.45-7.2 239.88-6.4 239.88-5.2L239.88-5.2Q239.88-3.9 240.83-2.98 241.78-2.05 244.48-2.05L244.48-2.05 249.63-2.05Q253.68-2.05 255.6-0.73 257.53 0.6 257.53 3.45L257.53 3.45Q257.53 5 256.73 6.48 255.93 7.95 254.45 9.08 252.98 10.2 250.88 10.88 248.78 11.55 246.18 11.55ZM245.83-9.4L245.83-9.4Q247.08-9.4 248.2-9.88 249.33-10.35 250.18-11.25 251.03-12.15 251.53-13.4 252.03-14.65 252.03-16.15L252.03-16.15Q252.03-17.65 251.53-18.9 251.03-20.15 250.2-21 249.38-21.85 248.23-22.33 247.08-22.8 245.83-22.8L245.83-22.8Q244.53-22.8 243.4-22.33 242.28-21.85 241.43-21 240.58-20.15 240.08-18.93 239.58-17.7 239.58-16.15L239.58-16.15Q239.58-14.65 240.08-13.4 240.58-12.15 241.45-11.25 242.33-10.35 243.45-9.88 244.58-9.4 245.83-9.4ZM246.43 9.75L246.43 9.75Q248.43 9.75 250.08 9.22 251.73 8.7 252.88 7.85 254.03 7 254.65 5.93 255.28 4.85 255.28 3.7L255.28 3.7Q255.28 1.7 253.85 0.88 252.43 0.05 249.73 0.05L249.73 0.05 244.58 0.05Q244.18 0.05 243.35-0.03 242.53-0.1 241.58-0.35L241.58-0.35Q239.93 0.8 239.18 2.1 238.43 3.4 238.43 4.7L238.43 4.7Q238.43 6.95 240.5 8.35 242.58 9.75 246.43 9.75ZM264.87 0L262.67 0 262.67-35.95 264.87-35.95 264.87-20.25Q266.77-22.15 268.72-23.38 270.67-24.6 273.17-24.6L273.17-24.6Q276.92-24.6 278.67-22.35 280.42-20.1 280.42-15.4L280.42-15.4 280.42 0 278.22 0 278.22-15.1Q278.22-18.95 276.95-20.78 275.67-22.6 272.72-22.6L272.72-22.6Q270.57-22.6 268.82-21.48 267.07-20.35 264.87-18.1L264.87-18.1 264.87 0ZM295.62 0.6L295.62 0.6Q293.87 0.6 292.72 0.08 291.57-0.45 290.87-1.4 290.17-2.35 289.9-3.7 289.62-5.05 289.62-6.65L289.62-6.65 289.62-22.1 285.87-22.1 285.87-23.8 289.67-24 289.97-30.95 291.87-30.95 291.87-24 298.82-24 298.82-22.1 291.87-22.1 291.87-6.45Q291.87-5.3 292.05-4.38 292.22-3.45 292.67-2.78 293.12-2.1 293.9-1.73 294.67-1.35 295.92-1.35L295.92-1.35Q296.62-1.35 297.45-1.58 298.27-1.8 298.92-2.1L298.92-2.1 299.52-0.3Q298.47 0.1 297.42 0.35 296.37 0.6 295.62 0.6ZM309.97 0.6L309.97 0.6Q307.27 0.6 305.02-0.38 302.77-1.35 301.17-2.7L301.17-2.7 302.47-4.35Q304.02-3.05 305.77-2.18 307.52-1.3 310.12-1.3L310.12-1.3Q312.97-1.3 314.39-2.73 315.82-4.15 315.82-6.05L315.82-6.05Q315.82-7.15 315.29-8 314.77-8.85 313.92-9.45 313.07-10.05 312.04-10.5 311.02-10.95 309.97-11.35L309.97-11.35Q308.62-11.85 307.24-12.4 305.87-12.95 304.77-13.73 303.67-14.5 302.99-15.58 302.32-16.65 302.32-18.2L302.32-18.2Q302.32-19.5 302.82-20.68 303.32-21.85 304.32-22.73 305.32-23.6 306.74-24.1 308.17-24.6 310.07-24.6L310.07-24.6Q311.97-24.6 313.79-23.9 315.62-23.2 316.92-22.1L316.92-22.1 315.72-20.55Q314.52-21.45 313.17-22.08 311.82-22.7 309.97-22.7L309.97-22.7Q308.57-22.7 307.57-22.33 306.57-21.95 305.89-21.35 305.22-20.75 304.89-19.95 304.57-19.15 304.57-18.35L304.57-18.35Q304.57-17.3 305.04-16.57 305.52-15.85 306.32-15.3 307.12-14.75 308.14-14.33 309.17-13.9 310.22-13.5L310.22-13.5Q311.62-12.95 313.02-12.4 314.42-11.85 315.54-11.05 316.67-10.25 317.37-9.08 318.07-7.9 318.07-6.15L318.07-6.15Q318.07-4.8 317.54-3.58 317.02-2.35 315.97-1.43 314.92-0.5 313.42 0.05 311.92 0.6 309.97 0.6ZM340.96 0.6L340.96 0.6Q339.21 0.6 338.06 0.08 336.91-0.45 336.21-1.4 335.51-2.35 335.24-3.7 334.96-5.05 334.96-6.65L334.96-6.65 334.96-22.1 331.21-22.1 331.21-23.8 335.01-24 335.31-30.95 337.21-30.95 337.21-24 344.16-24 344.16-22.1 337.21-22.1 337.21-6.45Q337.21-5.3 337.39-4.38 337.56-3.45 338.01-2.78 338.46-2.1 339.24-1.73 340.01-1.35 341.26-1.35L341.26-1.35Q341.96-1.35 342.79-1.58 343.61-1.8 344.26-2.1L344.26-2.1 344.86-0.3Q343.81 0.1 342.76 0.35 341.71 0.6 340.96 0.6ZM354.16 0.6L354.16 0.6Q352.71 0.6 351.46 0.2 350.21-0.2 349.26-1 348.31-1.8 347.76-3.05 347.21-4.3 347.21-6L347.21-6Q347.21-10 350.94-12.08 354.66-14.15 362.71-15.05L362.71-15.05Q362.71-16.4 362.51-17.78 362.31-19.15 361.66-20.23 361.01-21.3 359.91-21.98 358.81-22.65 357.01-22.65L357.01-22.65Q354.61-22.65 352.61-21.7 350.61-20.75 349.36-19.85L349.36-19.85 348.36-21.5Q349.01-21.95 349.94-22.5 350.86-23.05 352.01-23.5 353.16-23.95 354.51-24.28 355.86-24.6 357.31-24.6L357.31-24.6Q359.41-24.6 360.86-23.88 362.31-23.15 363.21-21.9 364.11-20.65 364.51-18.98 364.91-17.3 364.91-15.35L364.91-15.35 364.91 0 363.01 0 362.81-3.1 362.66-3.1Q360.81-1.65 358.69-0.53 356.56 0.6 354.16 0.6ZM354.56-1.3L354.56-1.3Q356.66-1.3 358.56-2.3 360.46-3.3 362.71-5.2L362.71-5.2 362.71-13.35Q359.01-12.9 356.46-12.25 353.91-11.6 352.36-10.7 350.81-9.8 350.14-8.65 349.46-7.5 349.46-6.1L349.46-6.1Q349.46-4.8 349.86-3.9 350.26-3 350.96-2.43 351.66-1.85 352.59-1.58 353.51-1.3 354.56-1.3ZM375.66 0L373.46 0 373.46-35.95 375.66-35.95 375.66-9.45 375.76-9.45 387.61-24 390.16-24 382.36-14.5 391.46 0 389.01 0 381.06-12.85 375.66-6.55 375.66 0ZM405.16 0.6L405.16 0.6Q402.86 0.6 400.83-0.25 398.81-1.1 397.31-2.73 395.81-4.35 394.93-6.68 394.06-9 394.06-11.95L394.06-11.95Q394.06-14.9 394.93-17.25 395.81-19.6 397.28-21.23 398.76-22.85 400.63-23.73 402.51-24.6 404.51-24.6L404.51-24.6Q408.81-24.6 411.26-21.7 413.71-18.8 413.71-13.5L413.71-13.5Q413.71-13.05 413.71-12.6 413.71-12.15 413.61-11.7L413.61-11.7 396.31-11.7Q396.36-9.45 397.01-7.53 397.66-5.6 398.83-4.23 400.01-2.85 401.66-2.08 403.31-1.3 405.36-1.3L405.36-1.3Q407.31-1.3 408.88-1.88 410.46-2.45 411.81-3.45L411.81-3.45 412.71-1.75Q411.26-0.9 409.53-0.15 407.81 0.6 405.16 0.6ZM396.31-13.5L396.31-13.5 411.61-13.5Q411.61-18.15 409.71-20.43 407.81-22.7 404.56-22.7L404.56-22.7Q403.01-22.7 401.61-22.08 400.21-21.45 399.08-20.25 397.96-19.05 397.23-17.35 396.51-15.65 396.31-13.5ZM436 0.6L436 0.6Q433.3 0.6 431.05-0.38 428.8-1.35 427.2-2.7L427.2-2.7 428.5-4.35Q430.05-3.05 431.8-2.18 433.55-1.3 436.15-1.3L436.15-1.3Q439-1.3 440.43-2.73 441.85-4.15 441.85-6.05L441.85-6.05Q441.85-7.15 441.33-8 440.8-8.85 439.95-9.45 439.1-10.05 438.08-10.5 437.05-10.95 436-11.35L436-11.35Q434.65-11.85 433.28-12.4 431.9-12.95 430.8-13.73 429.7-14.5 429.03-15.58 428.35-16.65 428.35-18.2L428.35-18.2Q428.35-19.5 428.85-20.68 429.35-21.85 430.35-22.73 431.35-23.6 432.78-24.1 434.2-24.6 436.1-24.6L436.1-24.6Q438-24.6 439.83-23.9 441.65-23.2 442.95-22.1L442.95-22.1 441.75-20.55Q440.55-21.45 439.2-22.08 437.85-22.7 436-22.7L436-22.7Q434.6-22.7 433.6-22.33 432.6-21.95 431.93-21.35 431.25-20.75 430.93-19.95 430.6-19.15 430.6-18.35L430.6-18.35Q430.6-17.3 431.08-16.57 431.55-15.85 432.35-15.3 433.15-14.75 434.18-14.33 435.2-13.9 436.25-13.5L436.25-13.5Q437.65-12.95 439.05-12.4 440.45-11.85 441.58-11.05 442.7-10.25 443.4-9.08 444.1-7.9 444.1-6.15L444.1-6.15Q444.1-4.8 443.58-3.58 443.05-2.35 442-1.43 440.95-0.5 439.45 0.05 437.95 0.6 436 0.6ZM452.65 0L450.45 0 450.45-35.95 452.65-35.95 452.65-20.25Q454.55-22.15 456.5-23.38 458.45-24.6 460.95-24.6L460.95-24.6Q464.7-24.6 466.45-22.35 468.2-20.1 468.2-15.4L468.2-15.4 468.2 0 466 0 466-15.1Q466-18.95 464.72-20.78 463.45-22.6 460.5-22.6L460.5-22.6Q458.35-22.6 456.6-21.48 454.85-20.35 452.65-18.1L452.65-18.1 452.65 0ZM482.1 0.6L482.1 0.6Q480.64 0.6 479.39 0.2 478.14-0.2 477.19-1 476.25-1.8 475.69-3.05 475.14-4.3 475.14-6L475.14-6Q475.14-10 478.87-12.08 482.6-14.15 490.64-15.05L490.64-15.05Q490.64-16.4 490.44-17.78 490.25-19.15 489.6-20.23 488.94-21.3 487.85-21.98 486.75-22.65 484.94-22.65L484.94-22.65Q482.55-22.65 480.55-21.7 478.55-20.75 477.3-19.85L477.3-19.85 476.3-21.5Q476.94-21.95 477.87-22.5 478.8-23.05 479.94-23.5 481.1-23.95 482.44-24.28 483.8-24.6 485.25-24.6L485.25-24.6Q487.35-24.6 488.8-23.88 490.25-23.15 491.14-21.9 492.05-20.65 492.44-18.98 492.85-17.3 492.85-15.35L492.85-15.35 492.85 0 490.94 0 490.75-3.1 490.6-3.1Q488.75-1.65 486.62-0.53 484.5 0.6 482.1 0.6ZM482.5-1.3L482.5-1.3Q484.6-1.3 486.5-2.3 488.39-3.3 490.64-5.2L490.64-5.2 490.64-13.35Q486.94-12.9 484.39-12.25 481.85-11.6 480.3-10.7 478.75-9.8 478.07-8.65 477.39-7.5 477.39-6.1L477.39-6.1Q477.39-4.8 477.8-3.9 478.19-3 478.89-2.43 479.6-1.85 480.52-1.58 481.44-1.3 482.5-1.3ZM503.59 10.85L501.39 10.85 501.39-24 503.29-24 503.49-21 503.64-21Q505.39-22.4 507.47-23.5 509.54-24.6 511.79-24.6L511.79-24.6Q516.59-24.6 518.99-21.28 521.39-17.95 521.39-12.35L521.39-12.35Q521.39-9.3 520.54-6.9 519.69-4.5 518.22-2.83 516.74-1.15 514.82-0.28 512.89 0.6 510.79 0.6L510.79 0.6Q509.09 0.6 507.29-0.18 505.49-0.95 503.59-2.35L503.59-2.35 503.59 10.85ZM510.69-1.35L510.69-1.35Q512.49-1.35 514.04-2.15 515.59-2.95 516.69-4.4 517.79-5.85 518.42-7.88 519.04-9.9 519.04-12.35L519.04-12.35Q519.04-14.55 518.62-16.45 518.19-18.35 517.29-19.73 516.39-21.1 514.94-21.88 513.49-22.65 511.44-22.65L511.44-22.65Q509.64-22.65 507.72-21.63 505.79-20.6 503.59-18.7L503.59-18.7 503.59-4.45Q505.69-2.75 507.49-2.05 509.29-1.35 510.69-1.35ZM537.69 0.6L537.69 0.6Q535.39 0.6 533.37-0.25 531.34-1.1 529.84-2.73 528.34-4.35 527.47-6.68 526.59-9 526.59-11.95L526.59-11.95Q526.59-14.9 527.47-17.25 528.34-19.6 529.82-21.23 531.29-22.85 533.16-23.73 535.04-24.6 537.04-24.6L537.04-24.6Q541.34-24.6 543.79-21.7 546.24-18.8 546.24-13.5L546.24-13.5Q546.24-13.05 546.24-12.6 546.24-12.15 546.14-11.7L546.14-11.7 528.84-11.7Q528.89-9.45 529.54-7.53 530.19-5.6 531.37-4.23 532.54-2.85 534.19-2.08 535.84-1.3 537.89-1.3L537.89-1.3Q539.84-1.3 541.41-1.88 542.99-2.45 544.34-3.45L544.34-3.45 545.24-1.75Q543.79-0.9 542.07-0.15 540.34 0.6 537.69 0.6ZM528.84-13.5L528.84-13.5 544.14-13.5Q544.14-18.15 542.24-20.43 540.34-22.7 537.09-22.7L537.09-22.7Q535.54-22.7 534.14-22.08 532.74-21.45 531.62-20.25 530.49-19.05 529.76-17.35 529.04-15.65 528.84-13.5Z" opacity="1" transform="matrix(1,0,0,1,0,0)" fill="#000000" class="slogan-text-1" data-fill-palette-color="secondary" id="text-1"/></svg></g></svg></g></svg></g></svg></g><g transform="matrix(1,0,0,1,0,0.22447438718209156)"><svg viewBox="0 0 85.72317687464809 89.78975487283896" height="89.78975487283896" width="85.72317687464809"><g><svg xmlns="http://www.w3.org/2000/svg" xmlns:xlink="http://www.w3.org/1999/xlink" version="1.0" x="0" y="0" viewBox="0 0 95.471 100" enable-background="new 0 0 95.471 100" xml:space="preserve" id="icon-0" width="85.72317687464809" height="89.78975487283896" class="icon-icon-0" data-fill-palette-color="accent" fill="#000000"><path d="M47.735 0C47.652 2.825 45.997 13.412 27.936 30.934 10.554 47.797 2.439 49.824 0 50 2.439 50.178 10.554 52.204 27.936 69.066 45.997 86.589 47.652 97.177 47.735 100 47.818 97.177 49.474 86.589 67.533 69.066 84.917 52.204 93.031 50.178 95.471 50 93.032 49.824 84.917 47.797 67.533 30.934 49.475 13.412 47.819 2.825 47.735 0" fill="#000000" data-fill-palette-color="accent"/></svg></g></svg></g></svg></g><defs/></svg>